<mxfile host="app.diagrams.net" modified="2024-04-09T12:22:11.538Z" agent="Mozilla/5.0 (Windows NT 10.0; Win64; x64) AppleWebKit/537.36 (KHTML, like Gecko) Chrome/123.0.0.0 Safari/537.36 Edg/123.0.0.0" etag="ymGMu09gl8uH1HIp4Gbt" version="24.2.2" type="github">
  <diagram name="第 1 页" id="V2GtCavT32pZFDgH0SQI">
    <mxGraphModel dx="545" dy="314" grid="1" gridSize="10" guides="1" tooltips="1" connect="1" arrows="1" fold="1" page="1" pageScale="1" pageWidth="827" pageHeight="1169" math="0" shadow="0">
      <root>
        <mxCell id="0" />
        <mxCell id="1" parent="0" />
        <mxCell id="ZrE3FmZ_HSNZRKHD4r32-1" value="&lt;font style=&quot;font-size: 16px;&quot; face=&quot;Times New Roman&quot;&gt;Input&lt;/font&gt;" style="rounded=0;whiteSpace=wrap;html=1;fillColor=#f5f5f5;fontColor=#333333;strokeColor=#666666;" vertex="1" parent="1">
          <mxGeometry x="80" y="640" width="80" height="40" as="geometry" />
        </mxCell>
        <mxCell id="ZrE3FmZ_HSNZRKHD4r32-2" value="" style="endArrow=classic;html=1;rounded=0;exitX=1;exitY=0.5;exitDx=0;exitDy=0;" edge="1" parent="1">
          <mxGeometry width="50" height="50" relative="1" as="geometry">
            <mxPoint x="160" y="659.92" as="sourcePoint" />
            <mxPoint x="250" y="620" as="targetPoint" />
            <Array as="points">
              <mxPoint x="200" y="660" />
              <mxPoint x="200" y="620" />
            </Array>
          </mxGeometry>
        </mxCell>
        <mxCell id="ZrE3FmZ_HSNZRKHD4r32-3" value="" style="endArrow=classic;html=1;rounded=0;exitX=1;exitY=0.5;exitDx=0;exitDy=0;" edge="1" parent="1">
          <mxGeometry width="50" height="50" relative="1" as="geometry">
            <mxPoint x="160" y="659.92" as="sourcePoint" />
            <mxPoint x="250" y="700" as="targetPoint" />
            <Array as="points">
              <mxPoint x="200" y="660" />
              <mxPoint x="200" y="700" />
            </Array>
          </mxGeometry>
        </mxCell>
        <mxCell id="ZrE3FmZ_HSNZRKHD4r32-4" value="" style="rounded=1;whiteSpace=wrap;html=1;fillColor=none;strokeColor=#0e8088;" vertex="1" parent="1">
          <mxGeometry x="250" y="590" width="160" height="60" as="geometry" />
        </mxCell>
        <mxCell id="ZrE3FmZ_HSNZRKHD4r32-5" value="" style="ellipse;whiteSpace=wrap;html=1;aspect=fixed;fillColor=#b0e3e6;strokeColor=#0e8088;" vertex="1" parent="1">
          <mxGeometry x="290" y="610" width="10" height="10" as="geometry" />
        </mxCell>
        <mxCell id="ZrE3FmZ_HSNZRKHD4r32-6" value="" style="ellipse;whiteSpace=wrap;html=1;aspect=fixed;fillColor=#b0e3e6;strokeColor=#0e8088;" vertex="1" parent="1">
          <mxGeometry x="260" y="630" width="10" height="10" as="geometry" />
        </mxCell>
        <mxCell id="ZrE3FmZ_HSNZRKHD4r32-7" value="" style="ellipse;whiteSpace=wrap;html=1;aspect=fixed;fillColor=#b0e3e6;strokeColor=#0e8088;" vertex="1" parent="1">
          <mxGeometry x="300" y="630" width="10" height="10" as="geometry" />
        </mxCell>
        <mxCell id="ZrE3FmZ_HSNZRKHD4r32-8" value="" style="ellipse;whiteSpace=wrap;html=1;aspect=fixed;fillColor=#b0e3e6;strokeColor=#0e8088;" vertex="1" parent="1">
          <mxGeometry x="330" y="600" width="10" height="10" as="geometry" />
        </mxCell>
        <mxCell id="ZrE3FmZ_HSNZRKHD4r32-9" value="" style="ellipse;whiteSpace=wrap;html=1;aspect=fixed;fillColor=#b0e3e6;strokeColor=#0e8088;" vertex="1" parent="1">
          <mxGeometry x="320" y="620" width="10" height="10" as="geometry" />
        </mxCell>
        <mxCell id="ZrE3FmZ_HSNZRKHD4r32-10" value="" style="ellipse;whiteSpace=wrap;html=1;aspect=fixed;fillColor=#b0e3e6;strokeColor=#0e8088;" vertex="1" parent="1">
          <mxGeometry x="350" y="620" width="10" height="10" as="geometry" />
        </mxCell>
        <mxCell id="ZrE3FmZ_HSNZRKHD4r32-11" value="" style="ellipse;whiteSpace=wrap;html=1;aspect=fixed;fillColor=#b0e3e6;strokeColor=#0e8088;" vertex="1" parent="1">
          <mxGeometry x="330" y="630" width="10" height="10" as="geometry" />
        </mxCell>
        <mxCell id="ZrE3FmZ_HSNZRKHD4r32-12" value="" style="ellipse;whiteSpace=wrap;html=1;aspect=fixed;fillColor=#b0e3e6;strokeColor=#0e8088;" vertex="1" parent="1">
          <mxGeometry x="380" y="610" width="10" height="10" as="geometry" />
        </mxCell>
        <mxCell id="ZrE3FmZ_HSNZRKHD4r32-13" value="" style="ellipse;whiteSpace=wrap;html=1;aspect=fixed;fillColor=#b0e3e6;strokeColor=#0e8088;" vertex="1" parent="1">
          <mxGeometry x="370" y="630" width="10" height="10" as="geometry" />
        </mxCell>
        <mxCell id="ZrE3FmZ_HSNZRKHD4r32-14" value="" style="endArrow=none;html=1;rounded=0;entryX=0;entryY=0.5;entryDx=0;entryDy=0;exitX=0.989;exitY=0.287;exitDx=0;exitDy=0;exitPerimeter=0;" edge="1" parent="1" source="ZrE3FmZ_HSNZRKHD4r32-5" target="ZrE3FmZ_HSNZRKHD4r32-8">
          <mxGeometry width="50" height="50" relative="1" as="geometry">
            <mxPoint x="220" y="600" as="sourcePoint" />
            <mxPoint x="270" y="550" as="targetPoint" />
          </mxGeometry>
        </mxCell>
        <mxCell id="ZrE3FmZ_HSNZRKHD4r32-15" value="" style="endArrow=none;html=1;rounded=0;entryX=0.054;entryY=0.77;entryDx=0;entryDy=0;exitX=1;exitY=0;exitDx=0;exitDy=0;entryPerimeter=0;" edge="1" parent="1" source="ZrE3FmZ_HSNZRKHD4r32-6" target="ZrE3FmZ_HSNZRKHD4r32-5">
          <mxGeometry width="50" height="50" relative="1" as="geometry">
            <mxPoint x="261" y="624.5" as="sourcePoint" />
            <mxPoint x="290" y="615.5" as="targetPoint" />
          </mxGeometry>
        </mxCell>
        <mxCell id="ZrE3FmZ_HSNZRKHD4r32-16" value="" style="endArrow=none;html=1;rounded=0;entryX=0.045;entryY=0.418;entryDx=0;entryDy=0;exitX=1.032;exitY=0.656;exitDx=0;exitDy=0;exitPerimeter=0;entryPerimeter=0;" edge="1" parent="1" source="ZrE3FmZ_HSNZRKHD4r32-5" target="ZrE3FmZ_HSNZRKHD4r32-9">
          <mxGeometry width="50" height="50" relative="1" as="geometry">
            <mxPoint x="279" y="641" as="sourcePoint" />
            <mxPoint x="301" y="628" as="targetPoint" />
          </mxGeometry>
        </mxCell>
        <mxCell id="ZrE3FmZ_HSNZRKHD4r32-17" value="" style="endArrow=none;html=1;rounded=0;entryX=0.06;entryY=0.282;entryDx=0;entryDy=0;exitX=0.74;exitY=0.928;exitDx=0;exitDy=0;exitPerimeter=0;entryPerimeter=0;" edge="1" parent="1" source="ZrE3FmZ_HSNZRKHD4r32-8" target="ZrE3FmZ_HSNZRKHD4r32-10">
          <mxGeometry width="50" height="50" relative="1" as="geometry">
            <mxPoint x="340" y="610" as="sourcePoint" />
            <mxPoint x="360" y="617" as="targetPoint" />
          </mxGeometry>
        </mxCell>
        <mxCell id="ZrE3FmZ_HSNZRKHD4r32-18" value="" style="endArrow=none;html=1;rounded=0;entryX=0.271;entryY=0.067;entryDx=0;entryDy=0;exitX=0.679;exitY=0.998;exitDx=0;exitDy=0;exitPerimeter=0;entryPerimeter=0;" edge="1" parent="1" source="ZrE3FmZ_HSNZRKHD4r32-5" target="ZrE3FmZ_HSNZRKHD4r32-7">
          <mxGeometry width="50" height="50" relative="1" as="geometry">
            <mxPoint x="276" y="620" as="sourcePoint" />
            <mxPoint x="290" y="634" as="targetPoint" />
          </mxGeometry>
        </mxCell>
        <mxCell id="ZrE3FmZ_HSNZRKHD4r32-19" value="" style="endArrow=none;html=1;rounded=0;entryX=0;entryY=0.5;entryDx=0;entryDy=0;exitX=1;exitY=0.5;exitDx=0;exitDy=0;" edge="1" parent="1" source="ZrE3FmZ_HSNZRKHD4r32-7" target="ZrE3FmZ_HSNZRKHD4r32-11">
          <mxGeometry width="50" height="50" relative="1" as="geometry">
            <mxPoint x="310" y="640" as="sourcePoint" />
            <mxPoint x="340" y="632" as="targetPoint" />
          </mxGeometry>
        </mxCell>
        <mxCell id="ZrE3FmZ_HSNZRKHD4r32-20" value="" style="endArrow=none;html=1;rounded=0;entryX=0.01;entryY=0.661;entryDx=0;entryDy=0;exitX=0.985;exitY=0.26;exitDx=0;exitDy=0;entryPerimeter=0;exitPerimeter=0;" edge="1" parent="1" source="ZrE3FmZ_HSNZRKHD4r32-11" target="ZrE3FmZ_HSNZRKHD4r32-10">
          <mxGeometry width="50" height="50" relative="1" as="geometry">
            <mxPoint x="320" y="645" as="sourcePoint" />
            <mxPoint x="340" y="645" as="targetPoint" />
          </mxGeometry>
        </mxCell>
        <mxCell id="ZrE3FmZ_HSNZRKHD4r32-21" value="" style="endArrow=none;html=1;rounded=0;entryX=-0.039;entryY=0.622;entryDx=0;entryDy=0;exitX=1.005;exitY=0.357;exitDx=0;exitDy=0;exitPerimeter=0;entryPerimeter=0;" edge="1" parent="1" source="ZrE3FmZ_HSNZRKHD4r32-10" target="ZrE3FmZ_HSNZRKHD4r32-12">
          <mxGeometry width="50" height="50" relative="1" as="geometry">
            <mxPoint x="347" y="619" as="sourcePoint" />
            <mxPoint x="361" y="633" as="targetPoint" />
          </mxGeometry>
        </mxCell>
        <mxCell id="ZrE3FmZ_HSNZRKHD4r32-22" value="" style="endArrow=none;html=1;rounded=0;entryX=-0.027;entryY=0.325;entryDx=0;entryDy=0;exitX=0.913;exitY=0.776;exitDx=0;exitDy=0;exitPerimeter=0;entryPerimeter=0;" edge="1" parent="1" source="ZrE3FmZ_HSNZRKHD4r32-10" target="ZrE3FmZ_HSNZRKHD4r32-13">
          <mxGeometry width="50" height="50" relative="1" as="geometry">
            <mxPoint x="370" y="634" as="sourcePoint" />
            <mxPoint x="390" y="626" as="targetPoint" />
          </mxGeometry>
        </mxCell>
      </root>
    </mxGraphModel>
  </diagram>
</mxfile>
